{"asset":{"version":"2.0","generator":"Blockbench 5.1.1 glTF exporter"},"scenes":[{"nodes":[15],"name":"blockbench_export"}],"scene":0,"nodes":[{"translation":[-0.25,0.21875,-0.28125],"name":"left_ear"},{"translation":[0.25,0.21875,-0.28125],"name":"right_ear"},{"translation":[-0.125,0.09375,-0.4375],"name":"left_eyeBall"},{"translation":[0.125,0.09375,-0.4375],"name":"right_eyeBall"},{"translation":[0,0.25,-0.6875],"name":"head","children":[0,1,2,3]},{"translation":[0,0,0.625],"name":"back_tail"},{"name":"front_tail","children":[5]},{"translation":[-0.03125,0.21875,0.8125],"name":"tail","children":[6]},{"translation":[0,-0.0625,-0.0625],"name":"body","children":[4,7]},{"translation":[-0.28125,0,-0.46875],"name":"left_arm"},{"translation":[-0.21875,-0.1875,0.53125],"name":"left_leg"},{"translation":[0.21875,-0.1875,0.53125],"name":"right_leg"},{"translation":[0.28125,0,-0.46875],"name":"right_arm"},{"name":"ALL","children":[8,9,10,11,12]},{"name":"ALL2","children":[13]},{"translation":[0,1,0.125],"name":"ALL2","mesh":0,"children":[14],"skin":0}],"bufferViews":[{"buffer":0,"byteOffset":0,"byteLength":6912,"target":34962,"byteStride":12},{"buffer":0,"byteOffset":6912,"byteLength":6912,"target":34962,"byteStride":12},{"buffer":0,"byteOffset":13824,"byteLength":4608,"target":34962,"byteStride":8},{"buffer":0,"byteOffset":18432,"byteLength":4608,"target":34962,"byteStride":8},{"buffer":0,"byteOffset":23040,"byteLength":9216,"target":34962,"byteStride":16},{"buffer":0,"byteOffset":32256,"byteLength":1728,"target":34963},{"buffer":0,"byteOffset":33984,"byteLength":960}],"buffers":[{"byteLength":34944,"uri":"data:application/octet-stream;base64,"}],"accessors":[{"bufferView":0,"componentType":5126,"count":576,"max":[0.46875,1.125,2],"min":[-0.46875,-1,-1.8156408071517944],"type":"VEC3"},{"bufferView":1,"componentType":5126,"count":576,"max":[1,1,1],"min":[-1,-1,-1],"type":"VEC3"},{"bufferView":2,"componentType":5126,"count":576,"max":[0.9998779296875,0.9998779296875],"min":[-0.0001220703125,0.0001220703125],"type":"VEC2"},{"bufferView":3,"componentType":5123,"count":576,"max":[0,14,0,0],"min":[0,2,0,0],"type":"VEC4"},{"bufferView":4,"componentType":5126,"count":576,"max":[0,1,0,0],"min":[0,1,0,0],"type":"VEC4"},{"bufferView":5,"componentType":5123,"count":864,"max":[575],"min":[0],"type":"SCALAR"},{"bufferView":6,"componentType":5126,"count":15,"max":[1,0,0,0,0,1,0,0,0,0,1,0,0.28125,0.1875,1.1875,1],"min":[1,0,0,0,0,1,0,0,0,0,1,0,-0.28125,-0.40625,-1.375,1],"type":"MAT4"}],"materials":[{"pbrMetallicRoughness":{"metallicFactor":0,"roughnessFactor":1,"baseColorTexture":{"index":0}},"alphaMode":"MASK","alphaCutoff":0.05,"doubleSided":true}],"textures":[{"sampler":0,"source":0,"name":"tiger_default"}],"samplers":[{"magFilter":9728,"minFilter":9728,"wrapS":33071,"wrapT":33071}],"images":[{"mimeType":"image/png","uri":"data:image/png;base64,"}],"meshes":[{"primitives":[{"mode":4,"attributes":{"POSITION":0,"NORMAL":1,"TEXCOORD_0":2,"JOINTS_0":3,"WEIGHTS_0":4},"indices":5,"material":0}]}],"skins":[{"inverseBindMatrices":6,"joints":[14,13,8,4,0,1,2,3,7,6,5,9,10,11,12],"skeleton":14}]}