{"asset":{"version":"2.0","generator":"Blockbench 5.1.1 glTF exporter"},"scenes":[{"nodes":[13],"name":"blockbench_export"}],"scene":0,"nodes":[{"translation":[0,0.0625,0],"name":"mouth_up"},{"name":"mouth_down"},{"name":"mouth","children":[0,1]},{"translation":[0,0,-1],"name":"head","children":[2]},{"translation":[0,0,-1],"name":"body_0","children":[3]},{"translation":[0,0,-1],"name":"body_1","children":[4]},{"name":"body_2","children":[5]},{"translation":[0,-0.0625,1],"name":"body_6"},{"translation":[0,0,1],"name":"body_5","children":[7]},{"translation":[0,0,1],"name":"body_4","children":[8]},{"translation":[0,-0.0625,0],"name":"body_3","children":[6,9]},{"translation":[0,0,-3.0625],"name":"ALL","children":[10]},{"name":"ALL2","children":[11]},{"translation":[0,0.25,3.125],"name":"ALL2","mesh":0,"children":[12],"skin":0}],"bufferViews":[{"buffer":0,"byteOffset":0,"byteLength":8352,"target":34962,"byteStride":12},{"buffer":0,"byteOffset":8352,"byteLength":8352,"target":34962,"byteStride":12},{"buffer":0,"byteOffset":16704,"byteLength":5568,"target":34962,"byteStride":8},{"buffer":0,"byteOffset":22272,"byteLength":5568,"target":34962,"byteStride":8},{"buffer":0,"byteOffset":27840,"byteLength":11136,"target":34962,"byteStride":16},{"buffer":0,"byteOffset":38976,"byteLength":2088,"target":34963},{"buffer":0,"byteOffset":41064,"byteLength":832}],"buffers":[{"byteLength":41896,"uri":"data:application/octet-stream;base64,"}],"accessors":[{"bufferView":0,"componentType":5126,"count":696,"max":[0.8032249808311462,0.8131250143051147,2.1875624656677246],"min":[-0.680931031703949,-0.3037196695804596,-6.687562465667725],"type":"VEC3"},{"bufferView":1,"componentType":5126,"count":696,"max":[1,1,1],"min":[-1,-1,-1],"type":"VEC3"},{"bufferView":2,"componentType":5126,"count":696,"max":[0.88665771484375,0.97259521484375],"min":[-0.00006103515625,0.00006103515625],"type":"VEC2"},{"bufferView":3,"componentType":5123,"count":696,"max":[0,12,0,0],"min":[0,2,0,0],"type":"VEC4"},{"bufferView":4,"componentType":5126,"count":696,"max":[0,1,0,0],"min":[0,1,0,0],"type":"VEC4"},{"bufferView":5,"componentType":5123,"count":1044,"max":[695],"min":[0],"type":"SCALAR"},{"bufferView":6,"componentType":5126,"count":13,"max":[1,0,0,0,0,1,0,0,0,0,1,0,0,0.125,6.0625,1],"min":[1,0,0,0,0,1,0,0,0,0,1,0,0,0,0,1],"type":"MAT4"}],"materials":[{"pbrMetallicRoughness":{"metallicFactor":0,"roughnessFactor":1,"baseColorTexture":{"index":0}},"alphaMode":"MASK","alphaCutoff":0.05,"doubleSided":true}],"textures":[{"sampler":0,"source":0,"name":"boa_default"}],"samplers":[{"magFilter":9728,"minFilter":9728,"wrapS":33071,"wrapT":33071}],"images":[{"mimeType":"image/png","uri":"data:image/png;base64,"}],"meshes":[{"primitives":[{"mode":4,"attributes":{"POSITION":0,"NORMAL":1,"TEXCOORD_0":2,"JOINTS_0":3,"WEIGHTS_0":4},"indices":5,"material":0}]}],"skins":[{"inverseBindMatrices":6,"joints":[12,11,10,6,5,4,3,2,0,1,9,8,7],"skeleton":12}]}