{"asset":{"version":"2.0","generator":"Blockbench 5.1.1 glTF exporter"},"scenes":[{"nodes":[18],"name":"blockbench_export"}],"scene":0,"nodes":[{"translation":[0.375,-0.6875,-0.875],"name":"right_arm"},{"translation":[0.5,-0.6875,0.875],"name":"right_leg"},{"translation":[-0.5,-0.6875,0.875],"name":"left_leg"},{"translation":[-0.375,-0.6875,-0.875],"name":"left_arm"},{"translation":[-0.46875,0.0625,-0.4375],"name":"left_ear"},{"translation":[0.46875,0.0625,-0.4375],"name":"right_ear"},{"translation":[0,-0.8125,0],"name":"trunk2"},{"translation":[0,-0.3125,-1],"name":"trunk","children":[6]},{"translation":[-0.3125,0.09375,-0.9375],"name":"left_eyeBall"},{"translation":[0.3125,0.09375,-0.9375],"name":"right_eyeBall"},{"translation":[0,0.4375,-1.3125],"name":"head","children":[4,5,7,8,9]},{"translation":[0,-0.9375,0],"name":"tail2"},{"rotation":[-0.043619387365336,0,0,0.9990482215818578],"translation":[0,0,1.4375],"name":"tail","children":[11]},{"translation":[0.84375,0.5,-0.625],"name":"demon_left_wing"},{"translation":[-0.84375,0.5,-0.625],"name":"demon_right_wing"},{"translation":[0,0.125,-0.0625],"name":"body","children":[10,12,13,14]},{"name":"ALL","children":[0,1,2,3,15]},{"name":"ALL2","children":[16]},{"translation":[0,1.9375,0.125],"name":"ALL2","mesh":0,"children":[17],"skin":0}],"bufferViews":[{"buffer":0,"byteOffset":0,"byteLength":16704,"target":34962,"byteStride":12},{"buffer":0,"byteOffset":16704,"byteLength":16704,"target":34962,"byteStride":12},{"buffer":0,"byteOffset":33408,"byteLength":11136,"target":34962,"byteStride":8},{"buffer":0,"byteOffset":44544,"byteLength":11136,"target":34962,"byteStride":8},{"buffer":0,"byteOffset":55680,"byteLength":22272,"target":34962,"byteStride":16},{"buffer":0,"byteOffset":77952,"byteLength":4176,"target":34963},{"buffer":0,"byteOffset":82128,"byteLength":1152}],"buffers":[{"byteLength":83280,"uri":"data:application/octet-stream;base64,"}],"accessors":[{"bufferView":0,"componentType":5126,"count":1392,"max":[2.7193751335144043,3.0625,1.828472375869751],"min":[-2.7193751335144043,-2.5158474445343018,-3.2120847702026367],"type":"VEC3"},{"bufferView":1,"componentType":5126,"count":1392,"max":[1,1,1],"min":[-1,-1,-1],"type":"VEC3"},{"bufferView":2,"componentType":5126,"count":1392,"max":[0.99993896484375,0.99993896484375],"min":[-0.00006103515625,-0.04290771484375],"type":"VEC2"},{"bufferView":3,"componentType":5123,"count":1392,"max":[0,17,0,0],"min":[0,2,0,0],"type":"VEC4"},{"bufferView":4,"componentType":5126,"count":1392,"max":[0,1,0,0],"min":[0,1,0,0],"type":"VEC4"},{"bufferView":5,"componentType":5123,"count":2088,"max":[1391],"min":[0],"type":"SCALAR"},{"bufferView":6,"componentType":5126,"count":18,"max":[1,0,0,0,0,1,0.08715574443340302,0,0,0,1,0,0.84375,0.9328148365020752,2.375,1],"min":[1,0,0,0,0,0.9961947202682495,0,0,0,-0.08715574443340302,0.9961947202682495,0,-0.84375,-0.65625,-1.380662202835083,1],"type":"MAT4"}],"materials":[{"pbrMetallicRoughness":{"metallicFactor":0,"roughnessFactor":1,"baseColorTexture":{"index":0}},"alphaMode":"MASK","alphaCutoff":0.05,"doubleSided":true}],"textures":[{"sampler":0,"source":0,"name":"elephant_skin_gold.png"}],"samplers":[{"magFilter":9728,"minFilter":9728,"wrapS":33071,"wrapT":33071}],"images":[{"mimeType":"image/png","uri":"data:image/png;base64,"}],"meshes":[{"primitives":[{"mode":4,"attributes":{"POSITION":0,"NORMAL":1,"TEXCOORD_0":2,"JOINTS_0":3,"WEIGHTS_0":4},"indices":5,"material":0}]}],"skins":[{"inverseBindMatrices":6,"joints":[17,16,0,1,2,3,15,10,4,5,7,6,8,9,12,11,13,14],"skeleton":17}]}