{"asset":{"version":"2.0","generator":"Blockbench 5.1.1 glTF exporter"},"scenes":[{"nodes":[15],"name":"blockbench_export"}],"scene":0,"nodes":[{"translation":[0.46875,-0.5,0.84375],"name":"right_leg"},{"translation":[-0.46875,-0.5,0.84375],"name":"left_leg"},{"translation":[-0.375,0.3125,-0.2812499999999999],"name":"left_ear"},{"translation":[0.375,0.3125,-0.2812499999999999],"name":"right_ear"},{"translation":[-0.21875,0.03125,-0.7515625],"name":"left_eyeBall"},{"translation":[0.21875,0.03125,-0.7515625],"name":"right_eyeBall"},{"translation":[0,-0.125,-1.0625],"name":"muzzle"},{"translation":[0,0.0625,-0.8765625],"name":"head","children":[2,3,4,5,6]},{"translation":[-0.28125,-0.5,-0.65625],"name":"left_arm"},{"translation":[0.28125,-0.5,-0.65625],"name":"right_arm"},{"translation":[0,0.25,-0.75],"name":"body_1","children":[7,8,9]},{"translation":[0,-0.3125,0.75],"name":"body_2","children":[10]},{"translation":[0,0.0625,0],"name":"body","children":[11]},{"name":"ALL","children":[0,1,12]},{"name":"ALL2","children":[13]},{"translation":[0,1.125,0],"name":"ALL2","mesh":0,"children":[14],"skin":0}],"bufferViews":[{"buffer":0,"byteOffset":0,"byteLength":15840,"target":34962,"byteStride":12},{"buffer":0,"byteOffset":15840,"byteLength":15840,"target":34962,"byteStride":12},{"buffer":0,"byteOffset":31680,"byteLength":10560,"target":34962,"byteStride":8},{"buffer":0,"byteOffset":42240,"byteLength":10560,"target":34962,"byteStride":8},{"buffer":0,"byteOffset":52800,"byteLength":21120,"target":34962,"byteStride":16},{"buffer":0,"byteOffset":73920,"byteLength":3960,"target":34963},{"buffer":0,"byteOffset":77880,"byteLength":960}],"buffers":[{"byteLength":78840,"uri":"data:application/octet-stream;base64,"}],"accessors":[{"bufferView":0,"componentType":5126,"count":1320,"max":[1.1281249523162842,1.1281249523162842,1.28125],"min":[-1.1281249523162842,-1.131250023841858,-2.020780324935913],"type":"VEC3"},{"bufferView":1,"componentType":5126,"count":1320,"max":[1,1,1],"min":[-1,-1,-1],"type":"VEC3"},{"bufferView":2,"componentType":5126,"count":1320,"max":[0.99993896484375,0.99993896484375],"min":[0.00006103515625,-0.07806396484375],"type":"VEC2"},{"bufferView":3,"componentType":5123,"count":1320,"max":[0,14,0,0],"min":[0,2,0,0],"type":"VEC4"},{"bufferView":4,"componentType":5126,"count":1320,"max":[0,1,0,0],"min":[0,1,0,0],"type":"VEC4"},{"bufferView":5,"componentType":5123,"count":1980,"max":[1319],"min":[0],"type":"SCALAR"},{"bufferView":6,"componentType":5126,"count":15,"max":[1,0,0,0,0,1,0,0,0,0,1,0,0.46875,0.5,1.939062476158142,1],"min":[1,0,0,0,0,1,0,0,0,0,1,0,-0.46875,-0.375,-0.84375,1],"type":"MAT4"}],"materials":[{"pbrMetallicRoughness":{"metallicFactor":0,"roughnessFactor":1,"baseColorTexture":{"index":0}},"alphaMode":"MASK","alphaCutoff":0.05,"doubleSided":true}],"textures":[{"sampler":0,"source":0,"name":"kodiak_default.png"}],"samplers":[{"magFilter":9728,"minFilter":9728,"wrapS":33071,"wrapT":33071}],"images":[{"mimeType":"image/png","uri":"data:image/png;base64,"}],"meshes":[{"primitives":[{"mode":4,"attributes":{"POSITION":0,"NORMAL":1,"TEXCOORD_0":2,"JOINTS_0":3,"WEIGHTS_0":4},"indices":5,"material":0}]}],"skins":[{"inverseBindMatrices":6,"joints":[14,13,0,1,12,11,10,7,2,3,4,5,6,8,9],"skeleton":14}]}